<?xml version="1.0" encoding="utf-8"?>
<!-- Generator: Adobe Illustrator 22.1.0, SVG Export Plug-In . SVG Version: 6.00 Build 0)  -->
<svg version="1.1" id="Layer_1" xmlns="http://www.w3.org/2000/svg" xmlns:xlink="http://www.w3.org/1999/xlink" x="0px" y="0px"
	 viewBox="0 0 128.6 84" style="enable-background:new 0 0 128.6 84;" xml:space="preserve">
<style type="text/css">
	.st0{fill:#9D9D9D;}
</style>
<title>Untitled-1</title>
<path class="st0" d="M86.4,32.6H49.3c-4.1,0-4.8-0.7-4.8-4.8v-5.6c0.2-3.7,2.3-5.7,6-5.8h2.4c2.1,0.1,2.8-0.7,2.2-2.8
	c-1.4-4.5,0.5-9.4,4.5-11.8c4.4-2.7,8.8-2.4,12.8,1c1.9,1.6,3.8,3.3,5.7,5.1c1.3,1.3,2.4,1.6,4.1,0.6c2.5-1.8,5.8-1.9,8.4-0.2
	c2,1.3,3.3,0.8,4.8-0.8c3-2.9,5.8-6.1,10.2-7.2c7.2-1.7,14.4,5.5,12.6,12.6c-0.8,3.4-0.7,3.5,2.8,3.5c6,0.1,7.5,1.7,7.6,7.8
	c0.1,8.9,0.4,8.4-8.5,8.4H86.4z M70.5,16.4h5.6c0.6-0.1,1.2-0.5,1.5-1c0.2-0.3-0.1-1.2-0.5-1.5l-7.9-7c-1.8-1.8-4.7-2.1-6.8-0.6
	c-2,1.3-2.9,3.8-2.1,6c0.6,2.7,2.8,3.9,5.5,4.1H70.5z M102.3,16.4h5.3c2.4-0.1,4.5-1.7,5.2-4.1c1-2.7-0.4-5.7-3.1-6.7
	c-1.8-0.6-3.8-0.3-5.2,1c-2.9,2.3-5.7,4.8-8.5,7.3c-0.3,0.3-0.7,1.2-0.5,1.5c0.3,0.5,0.9,0.9,1.5,1H102.3z"/>
<path class="st0" d="M80.8,61.2c0,6.5-0.1,13.1,0,19.7c0,2.2-0.5,3.2-2.9,3.1H57.8c-5.8,0-8-2.2-8-8c0-11.5,0.1-23,0-34.5
	c0-2.4,0.7-3.2,3.1-3.2h24.8c2.5,0,3.2,0.8,3.1,3.2C80.7,48,80.8,54.6,80.8,61.2z"/>
<path class="st0" d="M92.3,60.8c0-6.6,0.1-13.1,0-19.7c0-2.2,0.7-2.9,2.9-2.9h25.3c2.3,0,2.8,0.8,2.8,2.9c-0.1,11.6,0,23.2,0,34.8
	c0,5.7-2.1,7.9-7.8,8H94.9c-2.2,0-2.6-0.9-2.6-2.8C92.4,74.4,92.3,67.6,92.3,60.8z"/>
<path class="st0" d="M13.4,54.7H2.8C0.7,54.8,0,53.8,0,51.9s0.9-2.6,2.8-2.6h10.6c0-4.2,0.1-8,0-11.8c-0.1-2.1,0.7-2.9,2.9-2.9
	s2.7,0.9,2.7,2.8c-0.1,3.8,0,7.7,0,11.9h10.6c1.8-0.1,2.8,0.4,2.8,2.4s-0.7,2.9-2.7,2.9H18.9c0,4,0,7.7,0.1,11.4
	c0,2-0.5,3.1-2.8,3.1s-2.9-0.9-2.8-3C13.5,62.5,13.4,58.8,13.4,54.7z"/>
</svg>
